<svg class="custom-logo" width="175" height="46" viewBox="0 0 175 46" fill="none" xmlns="http://www.w3.org/2000/svg">
<g clip-path="url(#clip0_573_383)">
<path d="M8.70605 8.63962C8.70605 11.32 7.03148 12.8668 4.35159 12.8668C2.57074 12.8668 1.12883 12.1292 0.0143617 10.8522L1.49074 8.71136C2.38978 9.6469 3.39797 10.1147 4.13616 10.1147C4.9835 10.1147 5.48616 9.59238 5.48616 8.56787V2.70495H1.1633V0.116428H8.70318V8.63962M29.1887 7.43432C29.1887 10.7604 26.9741 12.8639 23.4469 12.8639C19.9197 12.8639 17.6333 10.7604 17.6333 7.43432V0.133646H20.8359V7.43432C20.8359 9.14182 21.9332 10.1864 23.4641 10.1864C24.9951 10.1864 26.0033 9.1447 26.0033 7.43432V0.133646H29.1887V7.43432ZM48.1432 1.39347L46.9369 3.89303C45.6041 3.12107 43.9295 2.58155 42.9041 2.58155C42.0769 2.58155 41.5168 2.88575 41.5168 3.49701C41.5168 5.67228 48.1748 4.43255 48.1748 8.98112C48.1748 11.4979 45.943 12.8295 43.1368 12.8295C41.0313 12.8295 38.8713 12.0374 37.3777 10.8149L38.6186 8.34977C39.914 9.48333 41.8586 10.2381 43.1712 10.2381C44.1794 10.2381 44.8085 9.85927 44.8085 9.14182C44.8085 6.91202 38.1504 8.24359 38.1504 3.78398C38.1504 1.46522 40.1495 -0.00984192 43.1712 -0.00984192C44.9894 -0.00984192 46.8421 0.546892 48.1375 1.39347M62.5968 2.70495V12.7204H59.3942V2.70495H55.6314V0.116428H66.3941V2.70495H62.5968ZM91.2513 3.31621L89.4158 7.97383H93.0522L91.2513 3.31621ZM88.4795 10.4016L87.5603 12.7204H84.2657L89.7031 0.133646H92.9976L98.3057 12.7204H94.8848L93.9857 10.4016H88.4795ZM109.519 2.65043V5.56323H115.169V8.08001H109.519V12.7204H106.317V0.133646H115.658V2.65043H109.519ZM129.858 2.70495V12.7204H126.656V2.70495H122.893V0.116428H133.656V2.70495H129.858ZM145.07 2.65043V5.14999H151.082V7.66677H145.07V10.2036H151.927V12.7204H141.865V0.133646H151.728V2.65043H145.07ZM166.472 6.66235C167.856 6.66235 168.666 5.96213 168.666 4.63056C168.666 3.29899 167.856 2.6533 166.472 2.6533H164.042V6.66235H166.472ZM166.561 9.17913H164.042V12.7204H160.839V0.133646H166.472C169.801 0.133646 171.708 1.71488 171.708 4.52151C171.708 6.44712 170.898 7.83034 169.422 8.56787L172.067 12.7204H168.431L166.558 9.17913M0 19.9436H8.31542L14.0572 36.2065H14.129L19.9082 19.9436H28.1891V44.8675H22.6915V25.752H22.6197L16.065 44.8675H11.8714L5.56372 25.752H5.49191V44.8675H0V19.9436ZM32.308 19.9436H37.8057V44.8675H32.308V19.9436ZM47.4223 39.7966H50.2774C51.547 39.7966 52.7246 39.6675 53.819 39.4092C54.9105 39.1509 55.8555 38.7233 56.6568 38.1235C57.4554 37.5266 58.0844 36.7403 58.5411 35.7646C59.0007 34.7917 59.2276 33.6008 59.2276 32.1917C59.2276 30.9721 58.9978 29.9103 58.5411 29.0063C58.0844 28.1023 57.4668 27.3591 56.6913 26.7708C55.9158 26.1853 55.0052 25.7434 53.9597 25.4507C52.9142 25.158 51.817 25.0116 50.6651 25.0116H47.4252V39.7966H47.4223ZM41.9275 19.9436H50.1711C52.1674 19.9436 54.0631 20.1674 55.8612 20.6123C57.6593 21.0571 59.2247 21.7803 60.5661 22.7761C61.9046 23.7747 62.9674 25.069 63.7544 26.6646C64.5414 28.2602 64.9349 30.1973 64.9349 32.473C64.9349 34.4904 64.5529 36.2697 63.7889 37.805C63.0248 39.3432 61.9965 40.6346 60.7068 41.6763C59.4143 42.7209 57.9235 43.5129 56.2317 44.0525C54.5399 44.592 52.7677 44.8617 50.9122 44.8617H41.9275V19.9379M67.7871 19.9436H75.2552L85.8599 37.2626H85.9288V19.9436H91.4265V44.8675H84.2399L73.3537 27.1266H73.2819V44.8675H67.7843V19.9436M95.5512 19.9436H101.049V44.8675H95.5512V19.9436ZM131.7 19.9436H137.194V29.2359H147.871V19.9436H153.368V44.8675H147.871V34.0944H137.194V44.8675H131.7V19.9436ZM162.388 24.8021H155.27V19.9436H175V24.8021H167.882V44.8675H162.385V24.8021" fill="white" style="opacity: 1; fill: white;"></path>
<path d="M112.182 25.0604C109.637 26.4723 107.957 29.1756 107.957 32.2778C107.957 36.8293 111.665 40.5341 116.22 40.5341C119.328 40.5341 122.08 38.7807 123.488 36.1922C123.304 36.2008 123.12 36.2065 122.933 36.2065C117.002 36.2065 112.173 31.3853 112.173 25.4564C112.173 25.3244 112.173 25.1924 112.182 25.0604ZM116.22 45.0397C109.178 45.0397 103.447 39.3145 103.447 32.2778C103.447 25.6372 108.434 20.1761 115.046 19.5705C115.85 19.4959 116.637 19.8604 117.099 20.5262C117.562 21.1891 117.634 22.0529 117.286 22.7818C116.887 23.6226 116.686 24.5209 116.686 25.4593C116.686 28.903 119.489 31.7039 122.936 31.7039C123.907 31.7039 124.84 31.4858 125.705 31.0582C126.432 30.6966 127.293 30.754 127.965 31.2074C128.638 31.6608 129.014 32.4357 128.954 33.2449C128.457 39.8626 122.864 45.0425 116.22 45.0425" fill="#F6B90B" style="opacity: 1; fill: rgb(246, 185, 11); transition: opacity 0.8s ease-in-out, fill 0.8s ease-in-out; stroke: none; stroke-width: 0; stroke-dasharray: none;"></path>
</g>
<defs>
<clipPath id="clip0_573_383">
<rect width="175" height="45.0495" fill="white" transform="translate(0 -0.00984192)" style="opacity: 1; fill: white; transition: opacity 0.8s ease-in-out, fill 0.8s ease-in-out; stroke: none; stroke-width: 0; stroke-dasharray: none;"></rect>
</clipPath>
</defs>
</svg>